/* XPM */
static char *_60c360a0c7e40a4a8e493eedd7818a71vWk7ay7CnAB5zQz[] = {
/* columns rows colors chars-per-pixel */
"64 64 8 1 ",
"  c None",
". c #10121C",
"X c #2C1E31",
"o c #4D3533",
"O c #6E4C30",
"+ c #3E3B65",
"@ c #3388DE",
"# c #36C5F4",
/* pixels */
"                                                                ",
"                                                                ",
"                                                                ",
"                                                                ",
"                  ............................                  ",
"                  .X                        X.                  ",
"                  . X                      X .                  ",
"                  .  ......................  .                  ",
"                  .  +                    +  .                  ",
"                  .  +                    +  .                  ",
"                  .  +         OO         +  .                  ",
"                  .  +        OOOO        +  .                  ",
"                  .  +        OOOO   @    +  .                  ",
"                  .  +      @ oooo  @     +  .                  ",
"                  .  +     @  OooO @      +  .                  ",
"                  .  +    @   OOOO        +  .                  ",
"                  .  +       oOOOOo       +  .                  ",
"                  .  +       oOOOOo #     +  .                  ",
"                  .  +       oOOOOo#      +  .                  ",
"                  .  +       oOOOO#       +  .                  ",
"                  .  +     # oOOO#o       +  .                  ",
"                  .  +    #  oOOOOo       +  .                  ",
"                  .  +   #   ooOOoo       +  .                  ",
"                  .  +  #     OOOO        +  .                  ",
"                  .  +        OOOO        +  .                  ",
"                  .  +        OOOo        +  .                  ",
"                  .  +        oOOO        +  .                  ",
"                  .  XXXXXXXXXooOOXXXXXXXXX  .                  ",
"                  . XXXXXXXXXXXXXXXXXXXXXXXX .                  ",
"                  .XXXXXXXXXXXXXXXXXXXXXXXXXX.                  ",
"                  ............................                  ",
"                  ..XXXXXXXXXXXXXXXXXXXXXXXX..                  ",
"                  .XXXXXXXXXXXXXXXXXXXXXXXXXX.                  ",
"                  .XXXXXXXXXXXXXXXXXXXXXXXXXX.                  ",
"                  ..XXXXXXXXXXXXXXXXXXXXXXXX..                  ",
"                  ............................                  ",
"                  ...XXXXXXXXXXXXXXXXXXXXXX...                  ",
"                  ...XXXXXXXXXXXXXXXXXXXXXX...                  ",
"                  .XXXXXXXXXXXXXXXXXXXXXXXXXX.                  ",
"                  .XXX....................XXX.                  ",
"                  .XXX.XXXXXXXXXXXXXXXXXX.XXX.                  ",
"                  .XXX.XXXXXXXXXXXXXXXXXX.XXX.                  ",
"                  .XXX.XXXXXXXXXXXXXXXXXX.XXX.                  ",
"                  .XXX.XXXXXXXXXXXXXXXXXX.XXX.                  ",
"                  .XXX.XXXXXXXXXXXXXXXXXX.XXX.                  ",
"                  .XXX.XXXXXXXXXXXXXXXXXX.XXX.                  ",
"                  .XXX.XXXXXXXXXXXXXXXXXX.XXX.                  ",
"                  .XXX.XXXXXXXXXXXXXXXXXX.XXX.                  ",
"                  .XXX.XXXXXXXXXXXXXXXXXX.XXX.                  ",
"                  .XXX.XXXXXXXXXXXXXXXXXX.XXX.                  ",
"                  .XXX.XXXXXXXXXXXXXXXXXX.XXX.                  ",
"                  .XXX.XXXXXXXXXXXXXXXXXX.XXX.                  ",
"                  .XXX.XXXXXXXXXXXXXXXXXX.XXX.                  ",
"                  .XXX.XXXXXXXXXXXXXXXXXX.XXX.                  ",
"                  .XXX.XXXXXXXXXXXXXXXXXX.XXX.                  ",
"                  .XXX....................XXX.                  ",
"                  .XXXXXXXXXXXXXXXXXXXXXXXXXX.                  ",
"                  ...XXXXXXXXXXXXXXXXXXXXXX...                  ",
"                  ...XXXXXXXXXXXXXXXXXXXXXX...                  ",
"                  ............................                  ",
"                                                                ",
"                                                                ",
"                                                                ",
"                                                                "
};
